<?xml version="1.0" encoding="UTF-8"?>
<svg width="431px" height="66px" viewBox="0 0 431 66" version="1.1" xmlns="http://www.w3.org/2000/svg" xmlns:xlink="http://www.w3.org/1999/xlink">
    <!-- Generator: Sketch 53.2 (72643) - https://sketchapp.com -->
    <title>Combined Shape</title>
    <desc>Created with Sketch.</desc>
    <g id="Page-1" stroke="none" stroke-width="1" fill="none" fill-rule="evenodd">
        <path d="M0.566894531,10.9536133 L0.566894531,64.5 L13.7509766,64.5 L13.7509766,42.5332031 L18.0581055,42.5332031 C21.0930612,42.5332031 23.5359342,42.1178601 25.3850655,41.2960239 C27.1982956,40.4901439 28.4255432,39.3516759 29.0910345,37.8751171 C29.7744584,36.3587703 30.125,33.8830701 30.125,30.4663086 L30.125,25.7158203 C30.125,22.3359843 29.9420802,19.8471663 29.5815584,18.2630555 C29.2297627,16.7172865 28.5621045,15.4084644 27.5770553,14.3280879 C26.6006649,13.2572081 25.1190088,12.4257752 23.1233281,11.8432522 C21.099138,11.2524075 18.1720612,10.9536133 14.3520508,10.9536133 L0.566894531,10.9536133 Z M13.7509766,34.1399854 L13.7509766,19.2861328 L14.2509766,19.2861328 C16.2116773,19.2861328 17.533205,19.592042 18.2362028,20.2680014 C18.9461967,20.9506879 19.265625,22.2775438 19.265625,24.2670898 L19.265625,28.7480469 C19.265625,30.8750477 18.9959232,32.2954769 18.4000097,33.0503007 C17.7847048,33.8296869 16.7368018,34.2006836 15.2954102,34.2006836 C14.9933117,34.2006836 14.6361726,34.189163 14.2232416,34.1662224 L13.7509766,34.1399854 Z M47.360605,20.7915039 L34.7973633,20.7915039 L34.7973633,64.5 L47.4086914,64.5 L47.4086914,47.3457031 C47.4086914,42.9712404 47.5444447,40.1826416 47.8251103,38.9313409 C48.1260649,37.5895849 48.9332747,36.5364284 50.2193771,35.7944463 C51.3950425,35.1161777 53.1390886,34.7647517 55.4609375,34.7213827 L55.4609375,20.0317067 C52.1651712,20.4339077 49.6294024,22.5260584 47.8220383,26.3667071 L46.6113765,28.9393633 L47.360605,20.7915039 Z M89.2871094,35.9916992 C89.2871094,32.866739 89.0718857,30.5489453 88.6489723,29.0524824 C88.2303722,27.5712824 87.4488329,26.1267821 86.2999907,24.7178246 C85.1652009,23.3261014 83.5428002,22.1888038 81.4251402,21.3091605 C79.3003627,20.4265606 76.7425263,19.9829102 73.75,19.9829102 C70.1969136,19.9829102 67.2983514,20.6694117 65.0471457,22.0331229 C62.8038514,23.3920416 61.26087,25.1814713 60.4031962,27.4114231 C59.5301452,29.6813558 59.0888672,32.8695896 59.0888672,36.96875 L59.0888672,48.4238281 C59.0888672,52.1808897 59.332659,54.9900364 59.8139475,56.8386218 C60.2892358,58.6641609 61.0793903,60.2122186 62.1844506,61.4889388 C63.2770483,62.7512604 64.8206791,63.7020088 66.8259834,64.3381 C68.8615197,64.9837808 71.3609277,65.3085938 74.3227539,65.3085938 C76.9610742,65.3085938 79.2887289,64.9306922 81.3074488,64.1777642 C83.3028984,63.4335154 84.9304031,62.2840567 86.1986143,60.7256615 C87.4751738,59.1570079 88.3046106,57.4765906 88.6918917,55.6800363 C89.0870467,53.8469564 89.2871094,50.9293751 89.2871094,46.9414062 L89.2871094,35.9916992 Z M76.6757812,32.6225586 L76.6757812,53.2416992 C76.6757812,55.2431397 76.5418382,56.5476287 76.2455977,57.2173897 C75.900515,57.9975769 75.1815543,58.3911133 74.1879883,58.3911133 C73.2082202,58.3911133 72.4946008,57.9583866 72.1436745,57.1249367 C71.8393088,56.4020683 71.7001953,54.981951 71.7001953,52.8037109 L71.7001953,32.6225586 C71.7001953,30.2553853 71.8386991,28.7722402 72.1490151,28.0869591 C72.5056019,27.2994966 73.2285108,26.9003906 74.2216797,26.9003906 C75.2194412,26.9003906 75.9361216,27.3044764 76.2669716,28.1015241 C76.5491485,28.7813137 76.6757812,30.260615 76.6757812,32.6225586 Z M124.730469,10.9536133 L112.119141,10.9536133 L112.119141,24.3791949 L111.255634,23.4648938 C110.155764,22.3003252 108.936876,21.4304582 107.596878,20.8515789 C106.257304,20.272883 104.78059,19.9829102 103.162598,19.9829102 C101.082344,19.9829102 99.3064234,20.4986716 97.8208904,21.5279337 C96.3359332,22.556797 95.4018505,23.7309233 94.9990436,25.0529561 C94.5791146,26.4311845 94.3637695,28.827589 94.3637695,32.2182617 L94.3637695,53.140625 C94.3637695,56.3975405 94.5789775,58.7372371 94.9996651,60.1395292 C95.4037869,61.4866019 96.3291177,62.6837813 97.7938953,63.7346 C99.2563156,64.7837276 100.984663,65.3085938 102.994141,65.3085938 C104.492879,65.3085938 105.925314,64.9878993 107.296572,64.3451221 C108.676477,63.6982919 109.997555,62.723726 111.259646,61.418114 L112.119141,60.528982 L112.119141,64.5 L124.730469,64.5 L124.730469,10.9536133 Z M112.119141,31.5444336 L112.119141,52.230957 C112.119141,54.8011885 111.969446,56.407531 111.636062,57.1384108 C111.256531,57.9704589 110.489021,58.3911133 109.429199,58.3911133 C108.482185,58.3911133 107.784343,58.0042662 107.426985,57.2448809 C107.115701,56.583403 106.975098,55.3355443 106.975098,53.4438477 L106.975098,31.5444336 C106.975098,29.7073271 107.122595,28.5214449 107.459162,27.9156258 C107.838515,27.2327892 108.555019,26.9003906 109.530273,26.9003906 C110.536805,26.9003906 111.271368,27.2713823 111.645212,28.019069 C111.97123,28.6711057 112.119141,29.8307251 112.119141,31.5444336 Z M160.780273,20.7915039 L148.168945,20.7915039 L148.168945,50.3779297 C148.168945,54.1026995 148.073182,56.2770819 147.863632,57.0166724 C147.602897,57.9369135 146.792907,58.3911133 145.580078,58.3911133 C144.43919,58.3911133 143.658717,57.9516236 143.369816,57.0697166 C143.132103,56.3440644 143.024902,54.2677658 143.024902,50.7148438 L143.024902,20.7915039 L130.413574,20.7915039 L130.413574,50.4453125 C130.413574,54.2660773 130.491767,56.8185196 130.64575,58.0833754 C130.795383,59.312507 131.174872,60.4937342 131.785828,61.6298971 C132.377652,62.7304827 133.299148,63.6155352 134.562443,64.2892923 C135.831518,64.9661328 137.447506,65.3085938 139.414551,65.3085938 C141.130573,65.3085938 142.63745,64.9518419 143.942709,64.2408475 C145.246164,63.5308352 146.346159,62.4627241 147.245302,61.0283777 L148.293238,59.3566702 L147.965935,64.5 L160.780273,64.5 L160.780273,20.7915039 Z M195.749936,36.6708984 C195.718141,32.7663993 195.310535,29.7416077 194.53534,27.6045835 C193.745662,25.4276321 192.150012,23.6178016 189.728667,22.1693185 C187.294851,20.7133746 184.351188,19.9829102 180.888672,19.9829102 C177.404663,19.9829102 174.462117,20.7185466 172.051782,22.1842908 C169.64493,23.6479172 168.091164,25.2927658 167.371719,27.1125404 C166.635445,28.9748804 166.26123,31.7814871 166.26123,35.5200195 L166.26123,48.2216797 C166.26123,52.5219168 166.719247,55.8273626 167.624719,58.129225 C168.515551,60.3938705 170.02937,62.1484024 172.17923,63.4060704 C174.339728,64.6699621 177.298176,65.3085938 181.057129,65.3085938 C183.998316,65.3085938 186.453936,64.8447544 188.426116,63.923681 C190.388101,63.0073696 191.974619,61.6521066 193.19307,59.8513871 C194.420875,58.0368431 195.143792,56.2781044 195.368807,54.5744234 C195.590243,52.8978367 195.717125,50.405752 195.748035,47.1044922 L184.623047,47.1044922 L184.623047,51.9277344 C184.623047,54.3007194 184.455283,55.9205125 184.10005,56.8269681 C183.698516,57.8515724 182.889205,58.3911133 181.764648,58.3911133 C180.782045,58.3911133 180.019337,57.8802423 179.533054,56.921184 C179.086865,56.0412005 178.872559,54.7732225 178.872559,53.1069336 L178.872559,32.0161133 C178.872559,29.9858573 179.012515,28.6796003 179.326094,28.0263102 C179.685624,27.2772898 180.394194,26.9003906 181.360352,26.9003906 C182.335778,26.9003906 183.056138,27.3281046 183.432449,28.1530931 C183.762916,28.8775802 183.915527,30.1512948 183.915527,32.0161133 L183.915527,36.6708984 L195.749936,36.6708984 Z M214.147461,14.828125 L201.502441,14.828125 L201.502441,21.8696289 L198.571289,21.8696289 L198.571289,27.9448242 L201.502441,27.9448242 L201.502441,51.152832 C201.502441,55.5632913 201.625195,58.3698908 201.862802,59.5255234 C202.088109,60.6213332 202.662734,61.5961443 203.598736,62.459346 C204.541688,63.3289576 205.625524,63.881297 206.859329,64.1217845 C208.145018,64.3723848 210.331122,64.5 213.400879,64.5 L218.392578,64.5 L218.392578,58.2873296 C216.298208,58.2636043 215.146308,58.0809946 214.730648,57.6191503 C214.297577,57.1379607 214.147461,55.5144816 214.147461,52.3657227 L214.147461,27.9448242 L217.819824,27.9448242 L217.819824,21.8696289 L214.147461,21.8696289 L214.147461,14.828125 Z M234.385254,10.9536133 L234.385254,64.5 L247.569336,64.5 L247.569336,39.9052734 L248.069336,39.9052734 C250.177723,39.9052734 251.526488,40.2942196 252.108219,41.1739112 C252.644439,41.9847805 252.881836,43.849213 252.881836,46.8740234 L252.881836,64.5 L265.055176,64.5 L265.055176,50.6137695 C265.055176,46.2595231 264.937866,43.5837477 264.715375,42.661998 C264.499562,41.7679157 263.934795,40.7597796 263.013603,39.6457806 C262.130215,38.5774971 260.331741,37.6889651 257.618416,37.0160605 L254.765796,36.3086108 L257.691876,36.0329656 C260.662095,35.7531623 262.610833,34.9315322 263.566505,33.6098592 C264.543287,32.2589899 265.055176,29.4926118 265.055176,25.3452148 C265.055176,20.7893043 264.329164,17.4976858 262.905794,15.4750026 C261.482917,13.4530188 259.658144,12.2064443 257.413272,11.717041 C255.089509,11.2104385 250.583901,10.9536133 243.925293,10.9536133 L234.385254,10.9536133 Z M247.569336,32.4150391 L247.569336,19.2861328 L248.069336,19.2861328 C249.818741,19.2861328 251.054434,19.5812236 251.78409,20.2180142 C252.538678,20.8765638 252.881836,22.1368913 252.881836,23.9975586 L252.881836,26.9960938 C252.881836,29.5658358 252.535849,31.1015318 251.703973,31.6707103 C250.96136,32.1788141 249.756007,32.4150391 248.069336,32.4150391 L247.569336,32.4150391 Z M300.936524,35.9916992 C300.936524,32.866739 300.7213,30.5489453 300.298387,29.0524824 C299.879787,27.5712824 299.098247,26.1267821 297.949405,24.7178246 C296.814615,23.3261014 295.192214,22.1888038 293.074554,21.3091605 C290.949777,20.4265606 288.391941,19.9829102 285.399414,19.9829102 C281.846328,19.9829102 278.947766,20.6694117 276.69656,22.0331229 C274.453266,23.3920416 272.910284,25.1814713 272.052611,27.4114231 C271.17956,29.6813558 270.738281,32.8695896 270.738281,36.96875 L270.738281,48.4238281 C270.738281,52.1808897 270.982073,54.9900364 271.463362,56.8386218 C271.93865,58.6641609 272.728805,60.2122186 273.833865,61.4889388 C274.926463,62.7512604 276.470093,63.7020088 278.475398,64.3381 C280.510934,64.9837808 283.010342,65.3085938 285.972168,65.3085938 C288.610488,65.3085938 290.938143,64.9306922 292.956863,64.1777642 C294.952313,63.4335154 296.579817,62.2840567 297.848029,60.7256615 C299.124588,59.1570079 299.954025,57.4765906 300.341306,55.6800363 C300.736461,53.8469564 300.936524,50.9293751 300.936524,46.9414062 L300.936524,35.9916992 Z M288.325196,32.6225586 L288.325196,53.2416992 C288.325196,55.2431397 288.191252,56.5476287 287.895012,57.2173897 C287.549929,57.9975769 286.830969,58.3911133 285.837403,58.3911133 C284.857635,58.3911133 284.144015,57.9583866 283.793089,57.1249367 C283.488723,56.4020683 283.34961,54.981951 283.34961,52.8037109 L283.34961,32.6225586 C283.34961,30.2553853 283.488113,28.7722402 283.798429,28.0869591 C284.155016,27.2994966 284.877925,26.9003906 285.871094,26.9003906 C286.868856,26.9003906 287.585536,27.3044764 287.916386,28.1015241 C288.198563,28.7813137 288.325196,30.260615 288.325196,32.6225586 Z M317.580078,37.1088867 L317.580078,32.9257812 C317.580078,30.364026 317.69442,28.791829 317.949192,28.1166843 C318.257554,27.299524 319.025697,26.9003906 320.135254,26.9003906 C321.13289,26.9003906 321.886044,27.3610579 322.31899,28.2409161 C322.712503,29.0406348 322.892578,30.6148448 322.892578,33.0268555 C322.892578,34.9685107 322.727842,36.2628706 322.364776,36.9630687 C321.961933,37.7399795 319.5988,38.9049045 314.925126,40.7367919 C310.821068,42.3254594 308.256646,43.7122286 307.271684,44.8438872 C306.314502,45.9436283 305.811035,48.1181748 305.811035,51.3549805 L305.811035,55.0273438 C305.811035,59.392586 306.753447,62.1665764 308.571696,63.3890151 C310.47716,64.6700901 312.56437,65.3085938 314.845703,65.3085938 C316.57727,65.3085938 318.054239,64.9327344 319.286261,64.1850972 C320.518628,63.4372502 321.529357,62.310103 322.31978,60.7933445 L323.263184,58.9830293 L323.263184,64.5 L335.503906,64.5 L335.503906,42.5615234 C335.503906,35.204846 335.269108,30.3467456 334.806007,28.0202185 C334.360784,25.783501 333.033427,23.8933443 330.799025,22.3357082 C328.559585,20.7745605 325.185517,19.9829102 320.674317,19.9829102 C316.917777,19.9829102 313.883238,20.6815093 311.564764,22.0682601 C309.245991,23.4551892 307.719184,25.0355683 306.967221,26.8042712 C306.20038,28.6079673 305.811035,31.2127385 305.811035,34.6103516 L305.811035,37.1088867 L317.580078,37.1088867 Z M322.097257,43.3372558 L322.892578,42.7551136 L322.892578,52.9384766 C322.892578,55.2700129 322.759939,56.6944431 322.454236,57.3191417 C322.100638,58.0417107 321.364662,58.3911133 320.337403,58.3911133 C319.253168,58.3911133 318.468437,57.9510774 318.078952,57.0855534 C317.736335,56.3241837 317.580078,54.7847644 317.580078,52.3994141 C317.580078,50.3303066 317.759508,48.7328082 318.126488,47.5963538 C318.516166,46.3896078 319.839418,44.9899009 322.097257,43.3372558 Z M367.982422,34.0766602 L367.982422,31.9824219 C367.982422,29.7699945 367.86676,28.1507275 367.640691,27.1388 C367.426042,26.1779882 366.794516,25.104394 365.735531,23.9277441 C364.683246,22.7585385 363.157907,21.8078871 361.152739,21.0816912 C359.134273,20.3506792 356.669672,19.9829102 353.759278,19.9829102 C350.833726,19.9829102 348.275165,20.4321651 346.081202,21.3272145 C343.923476,22.2074809 342.412562,23.4427194 341.528251,25.0323738 C340.634126,26.6396703 340.17627,29.1960324 340.17627,32.6899414 C340.17627,35.1345328 340.599481,37.2343111 341.441255,38.9934029 C342.261049,40.7065626 344.630873,42.6886964 348.544441,44.8873347 C353.385596,47.5819399 356.00959,49.167502 356.587327,49.7705361 C357.196401,50.4349805 357.459961,51.8605998 357.459961,54.1176758 C357.459961,55.7735134 357.252349,56.8787437 356.779415,57.4768658 C356.28827,58.0980202 355.470336,58.3911133 354.365723,58.3911133 C353.274731,58.3911133 352.487745,57.9203931 352.102551,57.0073385 C351.76427,56.2054876 351.608399,54.600593 351.608399,52.1298828 L351.608399,49.7998047 L340.546875,49.7998047 L340.546875,51.4560547 C340.546875,55.1139051 340.995625,57.8282935 341.875436,59.5879166 C342.739867,61.3167783 344.340493,62.6993785 346.699518,63.7334717 C349.091142,64.7818548 351.982719,65.3085938 355.376465,65.3085938 C358.431499,65.3085938 361.02925,64.8218574 363.172319,63.8536689 C365.285132,62.899149 366.776773,61.5508328 367.666235,59.8036761 C368.567654,58.0330309 369.026856,55.3598235 369.026856,51.7929688 C369.026856,48.632553 368.434033,46.250484 367.26877,44.6403023 C366.092684,43.0151652 363.557242,41.2370631 359.670229,39.3377248 C356.673993,37.8623055 354.691132,36.7373582 353.699616,35.9441453 C352.672836,35.1227218 352.040184,34.3474127 351.814558,33.5909006 C351.606768,32.8941953 351.507324,31.8471109 351.507324,30.4326172 C351.507324,29.3225639 351.72406,28.4619955 352.181145,27.8570307 C352.663105,27.2191419 353.385608,26.9003906 354.29834,26.9003906 C355.421237,26.9003906 356.198537,27.2631308 356.526711,28.0288704 C356.799474,28.6653175 356.920899,30.012548 356.920899,32.1508789 L356.920899,34.0766602 L367.982422,34.0766602 Z M387.018067,14.828125 L374.373047,14.828125 L374.373047,21.8696289 L371.441895,21.8696289 L371.441895,27.9448242 L374.373047,27.9448242 L374.373047,51.152832 C374.373047,55.5632913 374.495801,58.3698908 374.733408,59.5255234 C374.958714,60.6213332 375.53334,61.5961443 376.469342,62.459346 C377.412294,63.3289576 378.49613,63.881297 379.729935,64.1217845 C381.015624,64.3723848 383.201727,64.5 386.271485,64.5 L391.263184,64.5 L391.263184,58.2873296 C389.168814,58.2636043 388.016913,58.0809946 387.601254,57.6191503 C387.168183,57.1379607 387.018067,55.5144816 387.018067,52.3657227 L387.018067,27.9448242 L390.69043,27.9448242 L390.69043,21.8696289 L387.018067,21.8696289 L387.018067,14.828125 Z M411.253907,1.36523438 L399.675782,1.36523438 L399.675782,4.79492188 L403.080078,4.79492188 L403.080078,22.5 L407.835938,22.5 L407.835938,4.79492188 L411.253907,4.79492188 L411.253907,1.36523438 Z M430.326172,1.36523438 L423.760836,1.36523438 L422.033341,14.9692561 L421.512695,11.2708729 L420.719429,5.63591598 C420.499299,4.02163359 420.290224,2.59801159 420.092251,1.36523437 L413.566406,1.36523438 L413.566407,22.5 L417.597657,22.5 L417.597657,8.3984375 L418.592472,8.32662432 L420.64947,22.5 L423.347901,22.5 L425.299384,7.98999456 L426.294922,8.05664062 L426.294922,22.5 L430.326172,22.5 L430.326172,1.36523438 Z" id="Combined-Shape" stroke="#474747" fill="#474747"></path>
    </g>
</svg>